<svg width="34" height="44" viewBox="0 0 34 44" fill="none" xmlns="http://www.w3.org/2000/svg">
<path d="M0.499981 41.5V5.49427C0.499981 4.66584 1.17155 4 1.99998 4C2.82841 4 3.48834 3.32685 3.51156 2.49875C3.55857 0.821889 3.79644 0.5 4.99998 0.5C7.99998 0.5 4.99998 7 8.49998 7C12 7 8.49998 0.5 12 0.5C15.5 0.5 12 7 15.5 7C18.5 7 15.5 0.5 18.5 0.5C22 0.5 18.5 7 22 7C25.5 7 22 0.5 25.5 0.5C28.5 0.5 25.5 7 28.5 7C32 7 29 4 31.5 4C32.6046 4 33.5 4.89533 33.5 5.9999V41.5C33.5 42.5 32.5 43.5 31.5 43.5H2.49998C0.999982 43.5 0.5 43 0.499981 41.5Z" fill="black"/>
<path d="M24.4393 13.5H9.56066C9.19673 13.5 8.84262 13.618 8.55147 13.8364C7.73262 14.4505 7.64755 15.6475 8.37132 16.3713L8.4714 16.4714C8.80986 16.8099 9.2689 17 9.74755 17H24.2525C24.7311 17 25.1901 16.8099 25.5286 16.4714L25.6287 16.3713C26.3525 15.6475 26.2674 14.4505 25.4485 13.8364C25.1574 13.618 24.8033 13.5 24.4393 13.5Z" fill="white"/>
<path d="M19.4393 20.5H9.56066C9.19673 20.5 8.84262 20.618 8.55147 20.8364C7.73262 21.4505 7.64755 22.6475 8.37132 23.3713L8.4714 23.4714C8.80986 23.8099 9.2689 24 9.74755 24H19.2525C19.7311 24 20.1901 23.8099 20.5286 23.4714L20.6287 23.3713C21.3525 22.6475 21.2674 21.4505 20.4485 20.8364C20.1574 20.618 19.8033 20.5 19.4393 20.5Z" fill="white"/>
<path d="M24.4393 27.5H9.56066C9.19673 27.5 8.84262 27.618 8.55147 27.8364C7.73262 28.4505 7.64755 29.6475 8.37132 30.3713L8.4714 30.4714C8.80986 30.8099 9.2689 31 9.74755 31H24.2525C24.7311 31 25.1901 30.8099 25.5286 30.4714L25.6287 30.3713C26.3525 29.6475 26.2674 28.4505 25.4485 27.8364C25.1574 27.618 24.8033 27.5 24.4393 27.5Z" fill="white"/>
<path d="M19.4393 34.5H9.56066C9.19673 34.5 8.84262 34.618 8.55147 34.8364C7.73262 35.4505 7.64755 36.6475 8.37132 37.3713L8.4714 37.4714C8.80986 37.8099 9.2689 38 9.74755 38H19.2525C19.7311 38 20.1901 37.8099 20.5286 37.4714L20.6287 37.3713C21.3525 36.6475 21.2674 35.4505 20.4485 34.8364C20.1574 34.618 19.8033 34.5 19.4393 34.5Z" fill="white"/>
</svg>
