<svg viewBox="0 0 36 25" fill="none" xmlns="http://www.w3.org/2000/svg">
  <path d="M28 10.8491V13.2264C29.7192 13.7738 32.3333 14.9245 33.3333 15.6038C34.3333 16.283 35 19 35 19H17C17 19 17.6667 16.283 18.6667 15.6038C19.6667 14.9245 24 13.2264 24 13.2264V10.8491C21.3333 8.13208 20.6667 1 26 1C31.6667 1 30.6667 8.13208 28 10.8491Z" fill="#FFFDFD" stroke="black" stroke-linecap="round" stroke-linejoin="round"/>
  <path d="M12 10.8491V13.2264C13.7192 13.7738 16.3333 14.9245 17.3333 15.6038C18.3333 16.283 19 19 19 19H1C1 19 1.66666 16.283 2.66666 15.6038C3.66666 14.9245 7.99999 13.2264 7.99999 13.2264V10.8491C5.33332 8.13208 4.66666 1 9.99999 1C15.6667 1 14.6667 8.13208 12 10.8491Z" fill="#FFFDFD" stroke="black" stroke-linecap="round" stroke-linejoin="round"/>
  <path d="M20 15.8491V18.2264C21.7192 18.7738 24.3333 19.9245 25.3333 20.6038C26.3333 21.283 27 24 27 24H9C9 24 9.66666 21.283 10.6667 20.6038C11.6667 19.9245 16 18.2264 16 18.2264V15.8491C13.3333 13.1321 12.6667 6 18 6C23.6667 6 22.6667 13.1321 20 15.8491Z" fill="#FFFDFD" stroke="black" stroke-linecap="round" stroke-linejoin="round"/>
</svg>
