<svg width="50" height="47" viewBox="0 0 50 47" fill="none" xmlns="http://www.w3.org/2000/svg">
  <path d="M0 41V4.99427C0 4.16584 0.671573 3.5 1.5 3.5C2.32843 3.5 2.98836 2.82685 3.01158 1.99875C3.05859 0.321889 3.29646 0 4.5 0C7.5 0 4.5 6.5 8 6.5C11.5 6.5 8 0 11.5 0C15 0 11.5 6.5 15 6.5C18 6.5 15 0 18 0C21.5 0 18 6.5 21.5 6.5C25 6.5 21.5 0 25 0C28 0 25 6.5 28 6.5C31.5 6.5 28.5 3.5 31 3.5C32.1046 3.5 33 4.39533 33 5.4999V41C33 42 32 43 31 43H2C0.500001 43 1.90735e-05 42.5 0 41Z" fill="black"/>
  <path d="M23.9394 13H9.06068C8.69675 13 8.34264 13.118 8.05149 13.3364C7.23264 13.9505 7.14757 15.1475 7.87134 15.8713L7.97142 15.9714C8.30988 16.3099 8.76892 16.5 9.24757 16.5H23.7525C24.2311 16.5 24.6902 16.3099 25.0286 15.9714L25.1287 15.8713C25.8525 15.1475 25.7674 13.9505 24.9485 13.3364C24.6574 13.118 24.3033 13 23.9394 13Z" fill="white"/>
  <path d="M18.9394 20H9.06068C8.69675 20 8.34264 20.118 8.05149 20.3364C7.23264 20.9505 7.14757 22.1475 7.87134 22.8713L7.97142 22.9714C8.30988 23.3099 8.76892 23.5 9.24757 23.5H18.7525C19.2311 23.5 19.6902 23.3099 20.0286 22.9714L20.1287 22.8713C20.8525 22.1475 20.7674 20.9505 19.9485 20.3364C19.6574 20.118 19.3033 20 18.9394 20Z" fill="white"/>
  <path d="M23.9394 27H9.06068C8.69675 27 8.34264 27.118 8.05149 27.3364C7.23264 27.9505 7.14757 29.1475 7.87134 29.8713L7.97142 29.9714C8.30988 30.3099 8.76892 30.5 9.24757 30.5H23.7525C24.2311 30.5 24.6902 30.3099 25.0286 29.9714L25.1287 29.8713C25.8525 29.1475 25.7674 27.9505 24.9485 27.3364C24.6574 27.118 24.3033 27 23.9394 27Z" fill="white"/>
  <path d="M18.9394 34H9.06068C8.69675 34 8.34264 34.118 8.05149 34.3364C7.23264 34.9505 7.14757 36.1475 7.87134 36.8713L7.97142 36.9714C8.30988 37.3099 8.76892 37.5 9.24757 37.5H18.7525C19.2311 37.5 19.6902 37.3099 20.0286 36.9714L20.1287 36.8713C20.8525 36.1475 20.7674 34.9505 19.9485 34.3364C19.6574 34.118 19.3033 34 18.9394 34Z" fill="white"/>
  <path d="M42.5 33.3491V35.7264C44.2192 36.2738 46.8334 37.4245 47.8334 38.1038C48.8334 38.783 49.5 41.5 49.5 41.5H31.5C31.5 41.5 32.1667 38.783 33.1667 38.1038C34.1667 37.4245 38.5 35.7264 38.5 35.7264V33.3491C35.8333 30.6321 35.1667 23.5 40.5 23.5C46.1667 23.5 45.1667 30.6321 42.5 33.3491Z" fill="#FFFDFD" stroke="black" stroke-linecap="round" stroke-linejoin="round"/>
  <path d="M26.5 33.3491V35.7264C28.2192 36.2738 30.8334 37.4245 31.8334 38.1038C32.8334 38.783 33.5 41.5 33.5 41.5H15.5C15.5 41.5 16.1667 38.783 17.1667 38.1038C18.1667 37.4245 22.5 35.7264 22.5 35.7264V33.3491C19.8333 30.6321 19.1667 23.5 24.5 23.5C30.1667 23.5 29.1667 30.6321 26.5 33.3491Z" fill="#FFFDFD" stroke="black" stroke-linecap="round" stroke-linejoin="round"/>
  <path d="M34.5 38.3491V40.7264C36.2192 41.2738 38.8334 42.4245 39.8334 43.1038C40.8334 43.783 41.5 46.5 41.5 46.5H23.5C23.5 46.5 24.1667 43.783 25.1667 43.1038C26.1667 42.4245 30.5 40.7264 30.5 40.7264V38.3491C27.8333 35.6321 27.1667 28.5 32.5 28.5C38.1667 28.5 37.1667 35.6321 34.5 38.3491Z" fill="#FFFDFD" stroke="black" stroke-linecap="round" stroke-linejoin="round"/>
</svg>
